<?xml version="1.0" encoding="utf-8"?>
<!-- Generator: Adobe Illustrator 25.2.3, SVG Export Plug-In . SVG Version: 6.00 Build 0)  -->
<svg version="1.1" id="Layer_1" xmlns="http://www.w3.org/2000/svg" xmlns:xlink="http://www.w3.org/1999/xlink" x="0px" y="0px"
	 viewBox="0 0 24 24" style="enable-background:new 0 0 24 24;" xml:space="preserve">
<style type="text/css">
	.st0{fill-rule:evenodd;clip-rule:evenodd;}
</style>
<path class="st0" d="M11.1,16.2l-0.8-2.5H7.5l-0.8,2.5H5l2.9-8.9h2.1l2.9,8.9H11.1z M8.4,10.3l-0.7,2.2H10l-0.7-2.2
	C9.2,9.8,9.1,9.3,8.9,8.9c0-0.1-0.1-0.2-0.1-0.3h0c0,0.2-0.1,0.4-0.1,0.6C8.6,9.5,8.5,9.9,8.4,10.3z"/>
<path class="st0" d="M18.8,12.8c0,0.3,0,0.5-0.1,0.7h-4.3c0,1.2,1,1.7,2,1.7c0.8,0,1.3-0.1,1.8-0.3l0.2,1.1
	c-0.6,0.2-1.3,0.4-2.2,0.4c-2.1,0-3.3-1.3-3.3-3.3c0-1.8,1.1-3.5,3.1-3.5C18.1,9.6,18.8,11.3,18.8,12.8z M16,10.7
	c-1,0-1.4,0.9-1.5,1.6h2.8C17.3,11.7,17,10.7,16,10.7z"/>
<path class="st0" d="M18.3,1C14.2,0.5,9.8,0.5,5.7,1C3.3,1.3,1.3,3.2,1,5.6c-0.5,4.3-0.5,8.5,0,12.8c0.3,2.4,2.2,4.3,4.6,4.6
	c4.2,0.5,8.5,0.5,12.6,0c2.4-0.3,4.4-2.2,4.6-4.6c0.5-4.3,0.5-8.5,0-12.8C22.7,3.2,20.7,1.3,18.3,1z M5.9,2.8c4-0.5,8.2-0.5,12.2,0
	c1.6,0.2,2.9,1.4,3.1,3c0.5,4.1,0.5,8.3,0,12.4c-0.2,1.6-1.5,2.8-3.1,3c-4,0.5-8.2,0.5-12.2,0c-1.6-0.2-2.9-1.4-3.1-3
	c-0.5-4.1-0.5-8.3,0-12.4C3,4.2,4.3,3,5.9,2.8z"/>
</svg>
