<?xml version="1.0" encoding="utf-8"?>
<!-- Generator: Adobe Illustrator 25.2.3, SVG Export Plug-In . SVG Version: 6.00 Build 0)  -->
<svg version="1.1" id="Layer_1" xmlns="http://www.w3.org/2000/svg" xmlns:xlink="http://www.w3.org/1999/xlink" x="0px" y="0px"
	 viewBox="0 0 24 24" style="enable-background:new 0 0 24 24;" xml:space="preserve">
<style type="text/css">
	.st0{fill-rule:evenodd;clip-rule:evenodd;}
</style>
<path d="M16.7,9.8v6.4h-1.6V9.8H16.7z"/>
<path d="M15,8c0-0.5,0.4-0.9,0.9-0.9c0.6,0,0.9,0.4,0.9,0.9c0,0.5-0.4,0.9-0.9,0.9C15.3,8.8,15,8.5,15,8z"/>
<path class="st0" d="M12.8,16.2L12,13.7H9.1l-0.8,2.5H6.7l2.9-8.9h2.1l2.9,8.9H12.8z M10.1,10.3l-0.7,2.2h2.3L11,10.3
	c-0.1-0.4-0.3-0.9-0.4-1.4c0-0.1-0.1-0.2-0.1-0.3h0c0,0.2-0.1,0.4-0.1,0.6C10.3,9.5,10.2,9.9,10.1,10.3z"/>
<path class="st0" d="M18.3,1C14.2,0.5,9.8,0.5,5.7,1C3.3,1.3,1.3,3.2,1,5.6c-0.5,4.3-0.5,8.5,0,12.8c0.3,2.4,2.2,4.3,4.6,4.6
	c4.2,0.5,8.5,0.5,12.6,0c2.4-0.3,4.4-2.2,4.6-4.6c0.5-4.3,0.5-8.5,0-12.8C22.7,3.2,20.7,1.3,18.3,1z M5.9,2.8c4-0.5,8.2-0.5,12.2,0
	c1.6,0.2,2.9,1.4,3.1,3c0.5,4.1,0.5,8.3,0,12.4c-0.2,1.6-1.5,2.8-3.1,3c-4,0.5-8.2,0.5-12.2,0c-1.6-0.2-2.9-1.4-3.1-3
	c-0.5-4.1-0.5-8.3,0-12.4C3,4.2,4.3,3,5.9,2.8z"/>
</svg>
