<?xml version="1.0" encoding="utf-8"?>
<!-- Generator: Adobe Illustrator 25.2.3, SVG Export Plug-In . SVG Version: 6.00 Build 0)  -->
<svg version="1.1" id="Layer_1" xmlns="http://www.w3.org/2000/svg" xmlns:xlink="http://www.w3.org/1999/xlink" x="0px" y="0px"
	 viewBox="0 0 24 24" style="enable-background:new 0 0 24 24;" xml:space="preserve">
<path d="M12.5,13.2c0-0.8,0.4-1.5,1-2c0.6-0.5,1.4-0.8,2.2-0.8c0.8,0,1.6,0.3,2.1,0.8c0.6,0.5,1,1.2,1,1.9c0,0.8-0.3,1.5-0.8,2.1
	c-0.6,0.6-1.4,0.9-2.3,0.9c-0.9,0-1.7-0.3-2.3-0.9C12.8,14.7,12.5,14,12.5,13.2 M7.5,14.8c0,0.3,0.1,0.9,0.2,1.4
	c0.3,1,0.8,1.9,1.5,2.7c0.8,0.8,1.7,1.5,2.7,1.9c1.1,0.5,2.3,0.7,3.6,0.7c1.2,0,2.4-0.3,3.6-0.8c1-0.5,2-1.1,2.7-2
	c0.7-0.8,1.2-1.7,1.5-2.7c0.3-1,0.4-2,0.2-3c-0.1-1-0.5-1.9-1-2.7c-0.5-0.8-1.1-1.4-1.8-2h0l-7.3-5.6l0,0c-0.5-0.4-1.3-0.4-1.8,0
	c-0.5,0.4-0.6,1-0.1,1.4l0,0l3,2.5l-9.3,0h0c-0.8,0-1.5,0.5-1.6,1.1C3.5,8.4,4.1,9,4.9,9v0l4.7,0l-8.4,6.4l0,0
	c-0.8,0.6-1,1.6-0.5,2.2c0.5,0.6,1.6,0.6,2.4,0l4.6-3.7C7.5,13.9,7.5,14.4,7.5,14.8L7.5,14.8z M19.2,16.4c-0.9,1-2.3,1.5-3.7,1.5
	c-1.4,0-2.7-0.5-3.7-1.5c-0.4-0.4-0.8-1-1-1.6c-0.4-1.1-0.3-2.4,0.3-3.4c0.3-0.5,0.7-1,1.1-1.3C13.2,9.4,14.3,9,15.5,9
	c1.2,0,2.4,0.4,3.3,1.1c0.5,0.4,0.8,0.8,1.1,1.3c0.3,0.5,0.5,1.1,0.5,1.7c0.1,0.6,0,1.2-0.2,1.8C20,15.5,19.7,16,19.2,16.4"/>
</svg>
