<?xml version="1.0" encoding="utf-8"?>
<!-- Generator: Adobe Illustrator 25.2.3, SVG Export Plug-In . SVG Version: 6.00 Build 0)  -->
<svg version="1.1" id="Layer_1" xmlns="http://www.w3.org/2000/svg" xmlns:xlink="http://www.w3.org/1999/xlink" x="0px" y="0px"
	 viewBox="0 0 24 24" style="enable-background:new 0 0 24 24;" xml:space="preserve">
<style type="text/css">
	.st0{fill-rule:evenodd;clip-rule:evenodd;}
</style>
<path class="st0" d="M18.3,1C14.2,0.5,9.8,0.5,5.7,1C3.3,1.3,1.3,3.2,1,5.6c-0.5,4.3-0.5,8.5,0,12.8c0.3,2.4,2.2,4.3,4.6,4.6
	c4.2,0.5,8.5,0.5,12.6,0c2.4-0.3,4.4-2.2,4.6-4.6c0.5-4.3,0.5-8.5,0-12.8C22.7,3.2,20.7,1.3,18.3,1z M5.9,2.8c4-0.5,8.2-0.5,12.2,0
	c1.6,0.2,2.9,1.4,3.1,3c0.5,4.1,0.5,8.3,0,12.4c-0.2,1.6-1.5,2.8-3.1,3c-4,0.5-8.2,0.5-12.2,0c-1.6-0.2-2.9-1.4-3.1-3
	c-0.5-4.1-0.5-8.3,0-12.4C3,4.2,4.3,3,5.9,2.8z"/>
<path d="M8.1,16.2V7.3h1.6v8.9H8.1z"/>
<path d="M14.3,7.3v2.2c-0.1,0-0.2,0-0.4,0c-1.8,0-3.2,1.6-3.2,3.6s1.4,3.2,3.2,3.2c0.1,0,0.2,0,0.4,0c0.6,0,1.1-0.1,1.6-0.4V7.3
	H14.3z M14,14.9c-1.1,0-1.9-0.7-1.9-1.9s0.8-2.2,1.9-2.2c0.1,0,0.2,0,0.4,0v4C14.2,14.9,14.1,14.9,14,14.9z"/>
</svg>
