<?xml version="1.0" encoding="utf-8"?>
<!-- Generator: Adobe Illustrator 25.2.3, SVG Export Plug-In . SVG Version: 6.00 Build 0)  -->
<svg version="1.1" id="Layer_1" xmlns="http://www.w3.org/2000/svg" xmlns:xlink="http://www.w3.org/1999/xlink" x="0px" y="0px"
	 viewBox="0 0 24 24" style="enable-background:new 0 0 24 24;" xml:space="preserve">
<style type="text/css">
	.st0{fill-rule:evenodd;clip-rule:evenodd;}
</style>
<path d="M7.6,16.2V7.3h1.6v8.9H7.6z"/>
<path d="M12.2,16.2h-1.6v-4.5c0-0.7,0-1.4-0.1-1.9H12l0.1,1h0c0.3-0.5,1-1.1,2-1.1c1.1,0,2.3,0.7,2.3,2.8v3.8h-1.6v-3.6
	c0-0.9-0.3-1.6-1.2-1.6c-0.6,0-1.1,0.5-1.3,1c-0.1,0.1-0.1,0.3-0.1,0.5V16.2z"/>
<path class="st0" d="M18.3,1C14.2,0.5,9.8,0.5,5.7,1C3.3,1.3,1.3,3.2,1,5.6c-0.5,4.3-0.5,8.5,0,12.8c0.3,2.4,2.2,4.3,4.6,4.6
	c4.2,0.5,8.5,0.5,12.6,0c2.4-0.3,4.4-2.2,4.6-4.6c0.5-4.3,0.5-8.5,0-12.8C22.7,3.2,20.7,1.3,18.3,1z M5.9,2.8c4-0.5,8.2-0.5,12.2,0
	c1.6,0.2,2.9,1.4,3.1,3c0.5,4.1,0.5,8.3,0,12.4c-0.2,1.6-1.5,2.8-3.1,3c-4,0.5-8.2,0.5-12.2,0c-1.6-0.2-2.9-1.4-3.1-3
	c-0.5-4.1-0.5-8.3,0-12.4C3,4.2,4.3,3,5.9,2.8z"/>
</svg>
