<?xml version="1.0" encoding="utf-8"?>
<!-- Generator: Adobe Illustrator 25.2.3, SVG Export Plug-In . SVG Version: 6.00 Build 0)  -->
<svg version="1.1" id="Layer_1" xmlns="http://www.w3.org/2000/svg" xmlns:xlink="http://www.w3.org/1999/xlink" x="0px" y="0px"
	 viewBox="0 0 15 15" style="enable-background:new 0 0 15 15;" xml:space="preserve">
<style type="text/css">
	.st0{fill-rule:evenodd;clip-rule:evenodd;}
</style>
<path class="st0" d="M13,0.8H2C1.3,0.8,0.8,1.3,0.8,2v11c0,0.7,0.5,1.2,1.2,1.2h11c0.7,0,1.2-0.5,1.2-1.2V2
	C14.2,1.3,13.7,0.8,13,0.8z M8,7.6c0.1-0.9,1-1.5,1.9-1.5h0.9c0.9,0,1.6,0.7,1.6,1.6v0.1h-0.9V7.8c0-0.4-0.3-0.7-0.7-0.7h-1
	c-0.5,0-0.9,0.4-0.9,0.9s0.4,0.9,0.9,0.9l0.8,0c0.9,0,1.7,0.6,1.9,1.5c0.2,1.1-0.7,2.1-1.8,2.1H9.7c-1,0-1.8-0.8-1.8-1.8h0.9
	c0,0.5,0.4,0.9,0.9,0.9h0.9c0.5,0,0.9-0.4,0.9-0.9s-0.4-0.9-0.9-0.9H9.7C8.6,9.7,7.8,8.8,8,7.6z M6.2,6.2v4.5c0,0.5-0.4,0.9-0.9,0.9
	s-0.9-0.4-0.9-0.9H3.5c0,1.1,1,1.9,2.1,1.8c0.9-0.1,1.5-1,1.5-1.9l0-4.4H6.2z"/>
</svg>
