<?xml version="1.0" encoding="utf-8"?>
<!-- Generator: Adobe Illustrator 25.2.3, SVG Export Plug-In . SVG Version: 6.00 Build 0)  -->
<svg version="1.1" id="Layer_1" xmlns="http://www.w3.org/2000/svg" xmlns:xlink="http://www.w3.org/1999/xlink" x="0px" y="0px"
	 viewBox="0 0 24 24" style="enable-background:new 0 0 24 24;" xml:space="preserve">
<style type="text/css">
	.st0{fill-rule:evenodd;clip-rule:evenodd;}
</style>
<path class="st0" d="M8.5,16.2H6.9V7.4c0.6-0.1,1.4-0.2,2.5-0.2c1.2,0,2.1,0.3,2.6,0.7c0.5,0.4,0.9,1.1,0.9,2c0,0.8-0.3,1.5-0.8,2
	c-0.6,0.6-1.7,1-2.8,1c-0.3,0-0.6,0-0.8-0.1V16.2z M9.5,8.5c-0.4,0-0.8,0-0.9,0.1v3c0.2,0.1,0.5,0.1,0.8,0.1c1.2,0,2-0.6,2-1.6
	C11.3,9,10.6,8.5,9.5,8.5z"/>
<path d="M15,16.3c-0.8,0-1.5-0.2-2-0.5l0.3-1.2c0.4,0.2,1.1,0.5,1.6,0.5c0.7,0,1-0.3,1-0.7c0-0.4-0.3-0.7-1.1-0.9
	c-1.3-0.4-1.8-1.1-1.8-1.9c0-1.1,0.9-2,2.4-2c0.7,0,1.3,0.2,1.7,0.4L17,11.2c-0.3-0.2-0.8-0.4-1.4-0.4c-0.6,0-0.9,0.3-0.9,0.7
	c0,0.4,0.3,0.6,1.1,0.9c1.2,0.4,1.7,1,1.7,2C17.6,15.5,16.7,16.3,15,16.3z"/>
<path class="st0" d="M18.3,1C14.1,0.5,9.8,0.5,5.7,1C3.3,1.3,1.3,3.2,1,5.6c-0.5,4.3-0.5,8.5,0,12.8c0.3,2.4,2.2,4.3,4.6,4.6
	c4.2,0.5,8.5,0.5,12.6,0c2.4-0.3,4.4-2.2,4.6-4.6c0.5-4.3,0.5-8.5,0-12.8C22.7,3.2,20.7,1.3,18.3,1z M5.9,2.8c4-0.5,8.2-0.5,12.2,0
	c1.6,0.2,2.9,1.4,3.1,3c0.5,4.1,0.5,8.3,0,12.4c-0.2,1.6-1.5,2.8-3.1,3c-4,0.5-8.2,0.5-12.2,0c-1.6-0.2-2.9-1.4-3.1-3
	c-0.5-4.1-0.5-8.3,0-12.4C3,4.2,4.3,3,5.9,2.8z"/>
</svg>
