<?xml version="1.0" encoding="utf-8"?>
<!-- Generator: Adobe Illustrator 25.2.3, SVG Export Plug-In . SVG Version: 6.00 Build 0)  -->
<svg version="1.1" id="Layer_1" xmlns="http://www.w3.org/2000/svg" xmlns:xlink="http://www.w3.org/1999/xlink" x="0px" y="0px"
	 viewBox="0 0 24 24" style="enable-background:new 0 0 24 24;" xml:space="preserve">
<style type="text/css">
	.st0{fill-rule:evenodd;clip-rule:evenodd;}
</style>
<path class="st0" d="M18.3,1C14.1,0.5,9.8,0.5,5.7,1C3.3,1.2,1.4,3.1,1.1,5.5c-0.5,4.2-0.5,8.5,0,12.8c0.2,2.4,2.3,4.3,4.7,4.6
	c4.2,0.5,8.4,0.5,12.6,0c2.4-0.2,4.3-2.2,4.7-4.6c0.5-4.2,0.5-8.5,0-12.8C22.7,3.1,20.8,1.3,18.3,1z M5.9,2.8
	c4.1-0.5,8.2-0.5,12.2,0c1.6,0.1,2.9,1.4,3,3c0.5,4.1,0.5,8.3,0,12.4c-0.2,1.6-1.4,2.9-3,3c-4.1,0.5-8.2,0.5-12.2,0
	c-1.6-0.1-2.9-1.4-3-3c-0.5-4.1-0.5-8.2,0-12.4C3,4.2,4.3,3,5.9,2.8z"/>
<g>
	<polygon points="10,11.8 12.4,16.2 10.6,16.2 9,13.3 7.6,16.2 5.8,16.2 8.2,11.8 5.8,7.3 7.4,7.3 9,10.2 10.7,7.3 12.4,7.3 	"/>
	<path d="M16.4,7.3v2.2c-0.1,0-0.2,0-0.4,0c-1.8,0-3.2,1.6-3.2,3.6s1.4,3.2,3.2,3.2c0.1,0,0.2,0,0.4,0c0.6,0,1.1-0.1,1.6-0.4V7.3
		H16.4z M16.1,14.9c-1.1,0-1.9-0.7-1.9-1.9s0.8-2.2,1.9-2.2c0.1,0,0.2,0,0.4,0v4C16.3,14.9,16.2,14.9,16.1,14.9z"/>
</g>
</svg>
