<?xml version="1.0" encoding="utf-8"?>
<!-- Generator: Adobe Illustrator 25.2.3, SVG Export Plug-In . SVG Version: 6.00 Build 0)  -->
<svg version="1.1" id="Layer_1" xmlns="http://www.w3.org/2000/svg" xmlns:xlink="http://www.w3.org/1999/xlink" x="0px" y="0px"
	 viewBox="0 0 873.3 218.6" style="enable-background:new 0 0 873.3 218.6;" xml:space="preserve">
<style type="text/css">
	.st0{fill:#FFD500;}
</style>
<g>
	<path class="st0" d="M146.9,66.9c0,28.3,0,56.6,0,84.9c-0.2,0.1-0.5,0.2-0.7,0.4c-13.9,8-27.8,16-41.7,24.1
		c-10.2,5.9-20.4,11.7-30.5,17.6c-0.1,0.1-0.2,0.2-0.4,0.3c-0.1,0-0.2,0-0.2,0c-0.1-0.1-0.2-0.2-0.4-0.3c-9.7-5.6-19.3-11.2-29-16.7
		c-13.4-7.8-26.9-15.5-40.3-23.3c-1.2-0.7-2.4-1.4-3.7-2.1c0-28.3,0-56.6,0-84.9c0.2-0.1,0.3-0.1,0.5-0.2
		c8.6-4.9,17.1-9.9,25.7-14.8c15.6-9,31.2-18,46.8-27c0.1-0.1,0.2-0.2,0.3-0.3c0.1,0,0.1,0,0.2,0c0.2,0.1,0.3,0.2,0.5,0.3
		c10,5.7,19.9,11.5,29.9,17.2c14.2,8.2,28.4,16.4,42.6,24.6C146.6,66.8,146.7,66.8,146.9,66.9z"/>
	<g>
		<path d="M88.9,115.5c-0.6,0.3-1.2,0.6-1.8,0.8c-2.3,1.1-4.6,2.1-6.8,3.2c-0.3,0.1-0.5,0.1-0.6-0.2c-0.6-1-1.2-2.1-1.8-3.1
			c-0.1-0.1-0.1-0.2-0.2-0.4c-0.6,0.9-1.2,1.7-1.9,2.5c-2.1,2.7-4.3,5.2-7.2,7.1c-1.4,0.9-2.8,1.7-4.5,1.9c-2.2,0.3-4.2-0.4-5.1-2.6
			c-0.6-1.3-0.9-2.7-1.1-4.2c-0.1-1-0.1-2.1-0.2-3.1c-0.1-2.4,0.4-4.8,1.1-7.2c1.6-5.3,4.1-10.2,7-14.9c0.5-0.7,0.6-1.3,0.2-2.1
			c-0.8-1.6-1.2-3.4-1.2-5.2c-0.2-3.8,0.9-7.3,2.7-10.5c1.7-3,3.7-5.6,6.3-7.9c1.6-1.4,3.3-2.6,5.3-3.2c0.9-0.3,1.9-0.4,2.8-0.3
			c1.7,0.3,2.6,1.4,3,3c0.5,2.3,0.3,4.5-0.3,6.8c-0.9,3.4-2.4,6.5-4.2,9.5c-1.2,2-2.6,4-4,5.9c-0.2,0.3-0.3,0.6-0.1,1
			c0.8,1.5,1.6,3.1,2.4,4.6c0.3,0.6,0.7,1.2,1.1,1.9c0.2-0.3,0.3-0.5,0.4-0.7c1.1-2.1,1.8-4.4,2.5-6.7c0.4-1.3,0.7-2.6,1.1-3.9
			c0.1-0.2,0.2-0.5,0.4-0.6c2.7-1.4,5.3-2.8,8-4.2c0.1,0,0.2-0.1,0.4-0.2c-0.2,0.8-0.3,1.5-0.5,2.3c-1.1,4.2-2.7,8.2-4.4,12.1
			c-1.3,2.8-2.6,5.6-3.9,8.4c-0.1,0.3-0.1,0.5,0,0.7c1.7,3,3.3,6,5,9.1C88.9,115.4,88.9,115.4,88.9,115.5z M69.5,100.8
			c-0.1,0.1-0.1,0.2-0.2,0.2c-1.5,2.2-2.7,4.5-3.7,7c-0.7,1.8-1.3,3.7-1,5.6c0.2,1.6,0.6,2.1,1.9,2.4c0.5,0.1,1,0.1,1.5,0
			c1.1-0.2,2-1,2.8-1.8c1.2-1.3,2.2-2.9,3-4.5c0.2-0.3,0.1-0.5,0-0.8c-1.3-2.4-2.5-4.8-3.8-7.2C69.9,101.4,69.7,101.1,69.5,100.8z
			 M73.2,86.8c0.6-0.9,1.1-1.6,1.7-2.5c1.4-2.2,2.8-4.3,3.5-6.9c0.2-0.7,0.4-1.5,0.2-2.3c-0.2-0.7-0.7-1-1.4-0.9
			c-0.8,0.2-1.5,0.6-2.1,1.2c-2.5,2.4-3.4,5.4-2.9,8.8C72.4,85.2,72.7,86,73.2,86.8z"/>
		<path d="M58.7,60c0.5,1.7,1.1,3.3,1.6,5c1,3.5,1.8,7,2.4,10.6c0.4,2.7,0.7,5.5,0.7,8.2c0,2,0,4.1-0.1,6.1c-0.2,4-1.2,7.9-2.5,11.6
			c-2.6,7.2-6.1,14-10.8,20.1c-2.1,2.7-4.3,5.3-6.9,7.5c-1.4,1.1-2.9,1.9-4.8,1.8c-1.8-0.1-3.2-0.8-4.1-2.4c-1.1-1.8-1.6-3.9-2-5.9
			c-0.9-4.5-1.7-8.9-2.5-13.4c0-0.2,0-0.5,0.1-0.7c3.4-5.7,6.8-11.4,10.2-17.2c5.4-9.1,10.8-18.1,16.2-27.2c0.7-1.2,1.5-2.4,2.2-3.7
			c0.1-0.1,0.2-0.2,0.2-0.3C58.6,60.1,58.6,60.1,58.7,60z M55.4,78.3c0,0-0.1,0-0.1,0c-0.1,0.1-0.1,0.2-0.2,0.2
			c-6.3,10.3-12.6,20.6-18.9,31c-0.1,0.2-0.2,0.5-0.1,0.8c0.3,1.9,0.6,3.8,0.9,5.7c0.2,1,0.5,2,1.1,2.9c0.5,0.6,1,1.1,1.9,1.1
			c0.8,0,1.5-0.3,2.1-0.7c0.9-0.8,1.9-1.6,2.6-2.6c4.3-5.4,7.6-11.4,9.8-18c1.3-3.9,2.1-7.8,2.1-11.9c0-1.6-0.1-3.3-0.3-4.9
			C56,80.7,55.6,79.5,55.4,78.3z"/>
		<path d="M56.4,152.5c3.5-2.6,7.1-5.1,10.6-7.7c-0.4-0.3-0.8-0.6-1.1-0.9c-2.7-2.1-5.4-4.3-8.1-6.4c-0.2-0.2-0.4-0.2-0.7-0.2
			c-4.7,1-9.3,2-14,3c-1.1,0.2-2.2,0.5-3.3,0.7c-0.1,0-0.4,0-0.5-0.1c-2.5-1.7-4.9-3.4-7.4-5.1c-0.1-0.1-0.2-0.1-0.3-0.1
			c0,0,0.1-0.1,0.1-0.1c1-0.2,2-0.4,3-0.6c4.4-0.9,8.9-1.8,13.3-2.8c5.1-1.1,10.2-2.1,15.3-3.2c5.1-1.1,10.1-2.1,15.2-3.2
			c4.7-1,9.4-2,14.1-2.9c1.4-0.3,2.8-0.6,4.1-0.9c0.1,0,0.3,0,0.4,0.1c1.9,1.9,3.7,3.8,5.6,5.7c-0.4,0.3-0.7,0.6-1.1,0.8
			c-9.6,7.4-19.3,14.8-28.9,22.1c-2.8,2.1-5.6,4.3-8.4,6.4c-0.3,0.2-0.5,0.2-0.8,0c-2.2-1.5-4.5-2.9-6.7-4.4
			C56.7,152.8,56.6,152.7,56.4,152.5z M67.3,135.1c2.1,1.7,4.2,3.3,6.2,5c4.1-3,8.2-6,12.4-9c0,0,0,0,0-0.1
			C79.7,132.4,73.5,133.7,67.3,135.1z"/>
		<path d="M98.3,86.7c-0.5-1-1-1.9-1.5-2.8c-1.6-2.9-3.1-5.8-4.7-8.7c-0.2-0.3-0.2-0.5,0.1-0.8c1.2-1.6,2.4-3.3,3.6-4.9
			c0.1-0.1,0.1-0.2,0.2-0.3c0.1,0.3,0.3,0.5,0.4,0.7c7.7,14.1,15.3,28.3,23,42.4c0.2,0.3,0.1,0.5,0,0.8c-0.9,1.8-1.8,3.5-2.8,5.3
			c-0.1,0.2-0.2,0.3-0.3,0.6c-0.4-0.5-0.9-0.9-1.3-1.4c-0.1,0.8-0.1,1.6-0.2,2.3c-0.4,2.5-1.3,4.7-3.3,6.3c-1.8,1.5-3.9,1.5-6,0.8
			c-1.9-0.7-3.5-1.8-5-3.2c-2.6-2.5-4.6-5.5-6.2-8.7c-1.6-3.1-3-6.3-3.8-9.7c-0.6-2.3-0.9-4.6-0.8-7c0.1-2.6,0.5-5.1,1.8-7.4
			c1.4-2.6,3.6-4,6.6-4.2C98.1,86.8,98.2,86.8,98.3,86.7z M110,112.8c-0.1-1.2-0.2-2.4-0.5-3.6c-0.8-4.3-2.6-8.2-5-11.8
			c-0.7-1.1-1.7-2-2.8-2.7c-1.1-0.6-2.3-0.7-3.4,0c-1,0.6-1.4,1.5-1.7,2.5c-0.6,2.1-0.4,4.3,0.1,6.4c1.1,4.4,3.3,8.3,5.9,12
			c0.7,1,1.6,1.9,2.6,2.5c1.6,1,3.2,0.5,3.9-1.2c0.1-0.2,0.1-0.3,0.2-0.5C109.9,115.2,109.9,114.1,110,112.8z"/>
	</g>
</g>
<g>
	<path class="st0" d="M213.2,100.5h-7.4l-10.5-26.1l-5.5,26.1h-7.4l8.1-38.8h7.5l10.5,26l5.4-26h7.4L213.2,100.5z"/>
	<path class="st0" d="M248.1,88.8H229c0,0.3,0,0.5,0,0.7c0,1.9,0.5,3.4,1.6,4.5c1.1,1.2,2.4,1.7,3.9,1.7c2.5,0,4.5-1.3,5.9-3.9
		l6.8,1.1c-1.3,2.7-3.1,4.8-5.3,6.2c-2.2,1.4-4.7,2-7.5,2c-3.8,0-6.9-1.2-9.2-3.6c-2.4-2.4-3.5-5.6-3.5-9.5c0-3.8,1.1-7.3,3.2-10.3
		c2.9-4.1,7.1-6.1,12.5-6.1c3.4,0,6.2,1.1,8.2,3.2c2,2.1,3,5.1,3,8.9C248.6,85.7,248.4,87.4,248.1,88.8z M241.7,84.2
		c0-0.3,0-0.6,0-0.8c0-2.1-0.5-3.6-1.4-4.7c-0.9-1-2.2-1.6-3.8-1.6s-3,0.6-4.2,1.8c-1.2,1.2-2.1,2.9-2.5,5.2H241.7z"/>
	<path class="st0" d="M279.7,100.5h-7.2l-1.4-17.9l-8.6,17.9h-7L252,72.4h6.8l2,18.9l8.8-18.9h6.9l1,18.9l8.7-18.9h7.6L279.7,100.5z
		"/>
	<path class="st0" d="M307.5,100.5l8.1-38.8h13.3c2.9,0,4.9,0.1,6,0.3c1.9,0.3,3.5,0.8,4.8,1.6c1.3,0.8,2.3,1.9,3,3.2
		c0.7,1.3,1,2.8,1,4.4c0,2.2-0.6,4-1.8,5.6c-1.2,1.6-3.1,2.8-5.6,3.6c2,0.5,3.6,1.5,4.7,2.9s1.7,3,1.7,4.8c0,2.3-0.7,4.5-2,6.6
		c-1.3,2.1-3.2,3.6-5.5,4.5c-2.3,0.9-5.5,1.4-9.6,1.4H307.5z M316.8,94.3h7.7c3.2,0,5.4-0.2,6.5-0.6c1.1-0.4,2-1.1,2.7-2.1
		c0.7-1,1-2,1-3c0-1.3-0.5-2.3-1.4-3.2s-2.5-1.3-4.8-1.3h-9.5L316.8,94.3z M320.3,77.4h6.1c2.7,0,4.7-0.2,5.9-0.6
		c1.2-0.4,2.1-1,2.7-1.9c0.6-0.9,0.9-1.8,0.9-2.8c0-1-0.3-1.8-0.8-2.4c-0.6-0.6-1.4-1.1-2.4-1.3c-0.6-0.1-2-0.2-4.2-0.2h-6.2
		L320.3,77.4z"/>
	<path class="st0" d="M346.1,100.5l8.1-38.8h7.6l-8.1,38.8H346.1z"/>
	<path class="st0" d="M361.5,88.9c0-5.2,1.5-9.4,4.4-12.5c2.9-3.1,6.8-4.7,11.6-4.7c4.1,0,7.4,1.1,9.7,3.4c2.3,2.3,3.5,5.4,3.5,9.2
		c0,4.6-1.5,8.5-4.4,11.8c-2.9,3.3-6.8,5-11.7,5c-2.7,0-5-0.5-7-1.6c-2-1.1-3.6-2.6-4.6-4.5S361.5,91.1,361.5,88.9z M383.1,83.4
		c0-1.8-0.5-3.2-1.6-4.3c-1.1-1.1-2.4-1.6-4.1-1.6c-1.6,0-3.1,0.5-4.4,1.5c-1.3,1-2.3,2.5-3,4.4c-0.7,1.9-1.1,3.7-1.1,5.3
		c0,2,0.5,3.6,1.6,4.8c1.1,1.2,2.5,1.8,4.1,1.8c2.1,0,3.8-0.9,5.2-2.7C382.1,90.1,383.1,87,383.1,83.4z"/>
	<path class="st0" d="M394,88.9c0-5.2,1.5-9.4,4.4-12.5c2.9-3.1,6.8-4.7,11.6-4.7c4.1,0,7.4,1.1,9.7,3.4c2.3,2.3,3.5,5.4,3.5,9.2
		c0,4.6-1.5,8.5-4.4,11.8c-2.9,3.3-6.8,5-11.7,5c-2.7,0-5-0.5-7-1.6c-2-1.1-3.6-2.6-4.6-4.5S394,91.1,394,88.9z M415.7,83.4
		c0-1.8-0.5-3.2-1.6-4.3c-1.1-1.1-2.4-1.6-4.1-1.6c-1.6,0-3.1,0.5-4.4,1.5c-1.3,1-2.3,2.5-3,4.4c-0.7,1.9-1.1,3.7-1.1,5.3
		c0,2,0.5,3.6,1.6,4.8c1.1,1.2,2.5,1.8,4.1,1.8c2.1,0,3.8-0.9,5.2-2.7C414.7,90.1,415.7,87,415.7,83.4z"/>
	<path class="st0" d="M451.5,100.5h-7.2l0.6-3c-1.4,1.3-2.7,2.3-4.1,2.9c-1.3,0.6-2.8,0.9-4.5,0.9c-2.9,0-5.3-1-7.1-3
		c-1.8-2-2.7-4.9-2.7-8.8c0-4.5,1.3-8.6,3.8-12.2c2.5-3.6,5.9-5.5,10.1-5.5c3.8,0,6.6,1.5,8.5,4.5l3-14.5h7.6L451.5,100.5z
		 M433.9,89.1c0,2,0.5,3.6,1.5,4.7c1,1.1,2.3,1.7,3.7,1.7c1.4,0,2.7-0.5,3.9-1.4c1.2-1,2.1-2.4,2.9-4.3c0.7-1.9,1.1-3.8,1.1-5.6
		c0-2-0.5-3.7-1.6-4.9c-1.1-1.3-2.4-1.9-3.8-1.9c-2.2,0-4,1.2-5.5,3.7C434.6,83.5,433.9,86.2,433.9,89.1z"/>
	<path class="st0" d="M473.6,100.5l8.1-38.8h27.2l-1.4,6.5h-19.2l-2,9.3h18.8l-1.4,6.5h-18.8l-3.4,16.5H473.6z"/>
	<path class="st0" d="M533.6,88.8h-19.1c0,0.3,0,0.5,0,0.7c0,1.9,0.5,3.4,1.6,4.5c1.1,1.2,2.4,1.7,3.9,1.7c2.5,0,4.5-1.3,5.9-3.9
		l6.8,1.1c-1.3,2.7-3.1,4.8-5.3,6.2c-2.2,1.4-4.7,2-7.5,2c-3.8,0-6.9-1.2-9.2-3.6c-2.4-2.4-3.5-5.6-3.5-9.5c0-3.8,1.1-7.3,3.2-10.3
		c2.9-4.1,7.1-6.1,12.5-6.1c3.4,0,6.2,1.1,8.2,3.2c2,2.1,3,5.1,3,8.9C534.1,85.7,534,87.4,533.6,88.8z M527.2,84.2
		c0-0.3,0-0.6,0-0.8c0-2.1-0.5-3.6-1.4-4.7c-0.9-1-2.2-1.6-3.8-1.6c-1.6,0-3,0.6-4.2,1.8c-1.2,1.2-2.1,2.9-2.5,5.2H527.2z"/>
	<path class="st0" d="M535.5,92.7l7.4-1.2c0.6,1.6,1.5,2.7,2.4,3.3s2.3,1,4,1c1.7,0,3.1-0.4,4.2-1.2c0.7-0.5,1.1-1.2,1.1-1.9
		c0-0.5-0.2-1-0.6-1.4c-0.4-0.4-1.4-0.9-3.2-1.4c-4.6-1.5-7.4-2.7-8.5-3.6c-1.7-1.4-2.6-3.2-2.6-5.4c0-2.2,0.8-4.1,2.5-5.7
		c2.3-2.2,5.7-3.4,10.3-3.4c3.6,0,6.4,0.7,8.2,2s3,3.1,3.5,5.4l-7,1.2c-0.4-1-1-1.8-1.8-2.3c-1.1-0.7-2.5-1-4.1-1s-2.7,0.3-3.4,0.8
		c-0.7,0.5-1.1,1.1-1.1,1.8c0,0.7,0.4,1.3,1.1,1.7c0.4,0.3,1.9,0.8,4.3,1.5c3.7,1.1,6.2,2.1,7.4,3.2c1.8,1.5,2.7,3.2,2.7,5.3
		c0,2.7-1.1,5-3.4,6.9c-2.2,2-5.4,2.9-9.5,2.9c-4.1,0-7.2-0.7-9.4-2.2S536.3,95.4,535.5,92.7z"/>
	<path class="st0" d="M567.7,78.1l1.2-5.6h3.7l0.9-4.5l8.7-5.2l-2,9.8h4.6l-1.2,5.6H579l-2.5,11.8c-0.4,2.1-0.7,3.4-0.7,3.7
		c0,0.6,0.2,1,0.6,1.4c0.4,0.3,1,0.5,2,0.5c0.3,0,1.2-0.1,2.5-0.2l-1.2,5.6c-1.3,0.3-2.7,0.4-4,0.4c-2.7,0-4.6-0.5-5.8-1.6
		c-1.2-1-1.8-2.5-1.8-4.3c0-0.9,0.3-2.9,1-6l2.4-11.3L567.7,78.1L567.7,78.1z"/>
	<path class="st0" d="M589.2,72.4h7.6l-5.9,28.1h-7.6L589.2,72.4z M591.4,61.7h7.6l-1.4,6.9H590L591.4,61.7z"/>
	<path class="st0" d="M612.1,100.5h-6.5l-5.6-28.1h7.5l2,12.3c0.5,3.3,0.9,5.5,1,6.6c0.1-0.3,0.7-1.4,1.8-3.4c1.1-2,1.8-3.2,2-3.6
		l7-11.9h8.2L612.1,100.5z"/>
	<path class="st0" d="M637.5,80.4l-7.4-0.6c0.8-2.5,2.3-4.5,4.4-5.9c2.1-1.4,4.9-2.1,8.4-2.1c3.6,0,6.3,0.7,8,2.2s2.6,3.2,2.6,5.3
		c0,0.8-0.1,1.7-0.2,2.7c-0.1,1-0.7,3.5-1.6,7.5c-0.7,3.4-1.1,5.7-1.1,7c0,1.2,0.2,2.5,0.6,4h-7.4c-0.3-1-0.5-2.1-0.6-3.2
		c-1.1,1.2-2.4,2.2-3.8,2.9c-1.4,0.7-2.9,1-4.4,1c-2.3,0-4.3-0.8-5.8-2.3c-1.5-1.5-2.3-3.5-2.3-5.9c0-2.7,0.8-4.8,2.5-6.4
		c1.7-1.6,4.7-2.6,8.9-2.9c3.6-0.3,6-0.7,7.3-1.1c0.3-1.1,0.5-1.9,0.5-2.5c0-0.8-0.3-1.5-1-2c-0.6-0.5-1.6-0.8-2.9-0.8
		c-1.4,0-2.4,0.3-3.2,0.8C638.3,78.6,637.8,79.4,637.5,80.4z M644.7,87.4c-0.5,0.1-1.1,0.2-1.8,0.3c-3.8,0.5-6.3,1.1-7.5,2
		c-0.8,0.6-1.2,1.5-1.2,2.6c0,0.9,0.3,1.6,1,2.2c0.6,0.6,1.5,0.9,2.5,0.9c1.2,0,2.2-0.3,3.2-0.8c1-0.6,1.8-1.3,2.3-2.1
		c0.5-0.9,1-2.2,1.3-4.1L644.7,87.4z"/>
	<path class="st0" d="M655.9,100.5l8.1-38.8h7.6l-8.1,38.8H655.9z"/>
	<path class="st0" d="M698.3,73.8l-7.4-1.1c0.6-3.6,2-6.4,4.2-8.3c2.2-1.9,4.9-2.9,8.3-2.9c3.6,0,6.5,1,8.5,2.9
		c2.1,2,3.1,4.5,3.1,7.5c0,1.5-0.3,3.1-1,4.6c-0.6,1.5-1.7,3.2-3.1,4.9c-1,1.2-2.8,2.9-5.1,5.1c-2.4,2.2-3.9,3.7-4.7,4.5
		c-0.8,0.8-1.5,1.7-2.2,2.6h13.5l-1.4,6.9h-23.6c0.2-1.9,0.8-3.7,1.7-5.4c0.9-1.7,2-3.3,3.3-4.8c1.3-1.5,3.7-3.9,7.2-7.2
		c2.6-2.5,4.3-4.1,5-4.9c1.2-1.4,2.1-2.6,2.5-3.6c0.5-1,0.7-1.9,0.7-2.7c0-1.3-0.4-2.4-1.2-3.2c-0.8-0.8-1.7-1.2-2.9-1.2
		c-1.2,0-2.2,0.5-3.2,1.4C699.4,69.8,698.8,71.4,698.3,73.8z"/>
	<path class="st0" d="M717.5,87.9c0-3.9,0.7-7.9,2-11.9c1.6-4.9,3.7-8.5,6.3-10.9c2.5-2.4,5.4-3.6,8.5-3.6c3.1,0,5.7,1.1,7.8,3.4
		c2,2.3,3,5.6,3,9.9c0,4-0.7,8.2-2.2,12.6c-1.5,4.4-3.5,7.8-6,10.2c-2.5,2.4-5.3,3.5-8.5,3.5s-5.7-1.1-7.8-3.4
		C718.6,95.5,717.5,92.2,717.5,87.9z M725,89.4c0,2.1,0.3,3.5,1,4.4c0.7,0.8,1.5,1.3,2.6,1.3c1.4,0,2.7-0.6,3.8-2
		c1.5-1.7,2.8-5.2,3.9-10.3c0.9-4.1,1.4-7.3,1.4-9.7c0-1.9-0.3-3.3-1-4.2c-0.7-0.9-1.5-1.3-2.6-1.3c-1.3,0-2.5,0.6-3.6,1.9
		c-1.5,1.9-2.9,5.2-4,9.9C725.5,83.5,725,86.9,725,89.4z"/>
	<path class="st0" d="M757.4,73.8l-7.4-1.1c0.6-3.6,2-6.4,4.2-8.3c2.2-1.9,5-2.9,8.3-2.9c3.6,0,6.5,1,8.5,2.9c2.1,2,3.1,4.5,3.1,7.5
		c0,1.5-0.3,3.1-1,4.6c-0.6,1.5-1.7,3.2-3.1,4.9c-1,1.2-2.8,2.9-5.1,5.1c-2.4,2.2-3.9,3.7-4.7,4.5c-0.8,0.8-1.5,1.7-2.2,2.6h13.5
		l-1.4,6.9h-23.6c0.2-1.9,0.8-3.7,1.7-5.4c0.9-1.7,2-3.3,3.3-4.8c1.3-1.5,3.7-3.9,7.2-7.2c2.6-2.5,4.3-4.1,5-4.9
		c1.2-1.4,2.1-2.6,2.5-3.6c0.5-1,0.7-1.9,0.7-2.7c0-1.3-0.4-2.4-1.2-3.2c-0.8-0.8-1.7-1.2-2.9-1.2c-1.2,0-2.2,0.5-3.2,1.4
		C758.5,69.8,757.9,71.4,757.4,73.8z"/>
	<path class="st0" d="M777.9,78.2l1.4-6.8c6.6-2.9,11.6-6.2,15.2-10h4.6l-8.2,39.1h-7.6l5.6-26.9c-1.6,1-3.4,2-5.5,2.8
		C781.4,77.3,779.6,77.9,777.9,78.2z"/>
	<path class="st0" d="M186.8,117.6h14.5c3.2,0,5.8,0.3,8,0.9c2.1,0.6,3.8,1.9,5.1,3.8c1.3,2,1.9,4.2,1.9,6.6c0,3.9-1.2,6.9-3.7,8.9
		c-2.5,2-6.1,3-10.8,3H192v15.5h-5.1V117.6z M192,136.3h9.8c3.3,0,5.7-0.6,7.1-1.9c1.4-1.2,2.1-3,2.1-5.3c0-1.6-0.4-2.9-1.2-4.1
		c-0.8-1.2-1.8-2-3-2.3c-1.2-0.3-2.9-0.5-5.2-0.5H192V136.3z"/>
	<path class="st0" d="M232.1,127.7c4,0,7.2,1.3,9.6,3.8c2.4,2.6,3.6,6.2,3.6,10.9c0,4.7-1.2,8.3-3.6,10.8c-2.4,2.6-5.6,3.9-9.6,3.9
		c-4,0-7.2-1.3-9.6-3.9c-2.4-2.6-3.6-6.2-3.6-10.8c0-4.7,1.2-8.3,3.6-10.9C224.9,129,228.1,127.7,232.1,127.7z M232.1,153.2
		c2.4,0,4.3-0.9,5.8-2.7c1.5-1.8,2.2-4.5,2.2-8.1c0-3.6-0.7-6.3-2.2-8.1c-1.5-1.8-3.4-2.7-5.8-2.7s-4.3,0.9-5.8,2.7
		c-1.5,1.8-2.2,4.5-2.2,8.1c0,3.6,0.7,6.3,2.2,8.1C227.8,152.3,229.7,153.2,232.1,153.2z"/>
	<path class="st0" d="M264.7,132.9c-0.7-0.2-1.7-0.3-3-0.3c-2.5,0-4.7,1.3-6.5,4v19.9h-5v-28.1h5v3.9c2.1-3,4.5-4.6,7.3-4.6
		c0.7,0,1.5,0.1,2.3,0.2L264.7,132.9L264.7,132.9z"/>
	<path class="st0" d="M280.1,156.5c-1.1,0.2-2.3,0.3-3.6,0.3c-2,0-3.5-0.4-4.5-1.1c-1-0.7-1.5-1.7-1.8-2.8c-0.2-1.2-0.3-2.7-0.3-4.7
		v-15.9h-3.5v-3.9h3.5v-7h5v7h4.6v3.9h-4.6v16.2c0,1.9,0.2,3.1,0.7,3.7c0.5,0.5,1.2,0.8,2,0.8c0.9,0,1.7-0.1,2.5-0.2L280.1,156.5
		L280.1,156.5z"/>
	<path class="st0" d="M290.8,132.3v24.2h-5v-24.2h-4.1v-3.9h4.1v-2.5c0-5.9,2.6-8.9,7.9-8.9c1.6,0,2.9,0.1,3.7,0.3v4.3
		c-1-0.2-2-0.3-3-0.3c-1.2,0-2.1,0.3-2.7,1c-0.6,0.7-0.9,1.9-0.9,3.5v2.4h5.3v3.9L290.8,132.3L290.8,132.3z"/>
	<path class="st0" d="M310.5,127.7c4,0,7.2,1.3,9.6,3.8c2.4,2.6,3.6,6.2,3.6,10.9c0,4.7-1.2,8.3-3.6,10.8c-2.4,2.6-5.6,3.9-9.6,3.9
		c-4,0-7.2-1.3-9.6-3.9c-2.4-2.6-3.6-6.2-3.6-10.8c0-4.7,1.2-8.3,3.6-10.9C303.3,129,306.5,127.7,310.5,127.7z M310.5,153.2
		c2.4,0,4.3-0.9,5.8-2.7c1.5-1.8,2.2-4.5,2.2-8.1c0-3.6-0.7-6.3-2.2-8.1c-1.5-1.8-3.4-2.7-5.8-2.7s-4.3,0.9-5.8,2.7
		c-1.5,1.8-2.2,4.5-2.2,8.1c0,3.6,0.7,6.3,2.2,8.1C306.1,152.3,308.1,153.2,310.5,153.2z"/>
	<path class="st0" d="M333.4,156.5h-5v-38.8h5V156.5z"/>
	<path class="st0" d="M344.6,123h-5v-5.4h5V123z M344.6,156.5h-5v-28.1h5V156.5z"/>
	<path class="st0" d="M362.6,127.7c4,0,7.2,1.3,9.6,3.8c2.4,2.6,3.6,6.2,3.6,10.9c0,4.7-1.2,8.3-3.6,10.8c-2.4,2.6-5.6,3.9-9.6,3.9
		c-4,0-7.2-1.3-9.6-3.9c-2.4-2.6-3.6-6.2-3.6-10.8c0-4.7,1.2-8.3,3.6-10.9C355.4,129,358.6,127.7,362.6,127.7z M362.6,153.2
		c2.4,0,4.3-0.9,5.8-2.7c1.5-1.8,2.2-4.5,2.2-8.1c0-3.6-0.7-6.3-2.2-8.1c-1.5-1.8-3.4-2.7-5.8-2.7s-4.3,0.9-5.8,2.7
		c-1.5,1.8-2.2,4.5-2.2,8.1c0,3.6,0.7,6.3,2.2,8.1C358.2,152.3,360.2,153.2,362.6,153.2z"/>
	<path class="st0" d="M396.4,117.6h14.5c3.2,0,5.8,0.3,8,0.9c2.1,0.6,3.8,1.9,5.1,3.8c1.3,2,1.9,4.2,1.9,6.6c0,3.9-1.2,6.9-3.7,8.9
		c-2.5,2-6.1,3-10.8,3h-9.8v15.5h-5.1L396.4,117.6L396.4,117.6z M401.6,136.3h9.8c3.3,0,5.7-0.6,7.1-1.9c1.4-1.2,2.1-3,2.1-5.3
		c0-1.6-0.4-2.9-1.2-4.1c-0.8-1.2-1.8-2-3-2.3c-1.2-0.3-2.9-0.5-5.2-0.5h-9.7V136.3z"/>
	<path class="st0" d="M435.5,123h-5v-5.4h5V123z M435.5,156.5h-5v-28.1h5V156.5z"/>
	<path class="st0" d="M453.4,157.1c-4,0-7.2-1.3-9.6-3.9c-2.4-2.6-3.6-6.2-3.6-10.8c0-4.7,1.2-8.3,3.6-10.9c2.4-2.6,5.6-3.8,9.6-3.8
		c3.1,0,5.6,0.8,7.7,2.3c2.1,1.6,3.3,3.8,3.6,6.7h-5.1c-0.1-1.7-0.7-3-1.9-3.8c-1.2-0.9-2.6-1.3-4.3-1.3c-2.4,0-4.3,0.9-5.8,2.7
		c-1.5,1.8-2.2,4.5-2.2,8.1c0,3.6,0.7,6.3,2.2,8.1c1.5,1.8,3.4,2.7,5.8,2.7c1.7,0,3.1-0.4,4.3-1.3c1.2-0.9,1.8-2.2,1.9-3.8h5.1
		c-0.4,2.9-1.6,5.2-3.6,6.7C459.1,156.3,456.5,157.1,453.4,157.1z"/>
	<path class="st0" d="M492,156.5h-6l-9.1-14.3l-3.1,3.1v11.2h-5v-38.8h5v22l10.8-11.3h6.3l-10.6,10.5L492,156.5z"/>
	<path class="st0" d="M504.7,157.1c-7.7,0-11.7-3-12.1-9.1h5c0,3.4,2.4,5.1,7,5.1c2.1,0,3.6-0.4,4.7-1.3c1.1-0.9,1.6-1.9,1.6-3.2
		c0-1.3-0.5-2.2-1.6-2.7c-1.1-0.5-3.2-1.2-6.6-2c-3.3-0.8-5.7-1.8-7.3-2.8c-1.5-1-2.3-2.8-2.3-5.4c0-2.3,1-4.3,2.9-5.8
		c1.9-1.5,4.4-2.3,7.6-2.3c7.4,0,11.1,2.6,11.3,7.9h-5c-0.2-2.7-2.2-4-6-4c-1.7,0-3.1,0.3-4.2,1s-1.7,1.6-1.7,2.8
		c0,1.1,0.4,1.9,1.3,2.4s3,1.1,6.4,2c3.4,0.8,5.9,1.8,7.6,2.9c1.7,1.1,2.5,3,2.5,5.7c0,2.6-1,4.7-3.1,6.4
		C510.9,156.3,508.2,157.1,504.7,157.1z"/>
</g>
</svg>
