<?xml version="1.0" encoding="utf-8"?>
<!-- Generator: Adobe Illustrator 25.2.3, SVG Export Plug-In . SVG Version: 6.00 Build 0)  -->
<svg version="1.1" id="Layer_1" xmlns="http://www.w3.org/2000/svg" xmlns:xlink="http://www.w3.org/1999/xlink" x="0px" y="0px"
	 viewBox="0 0 100 100" style="enable-background:new 0 0 100 100;" xml:space="preserve">
<style type="text/css">
	.st0{fill:#FFFFFF;}
</style>
<g>
	<path class="st0" d="M58.4,15.9L59,16c0,0.2-0.1,0.4-0.1,0.6s-0.1,0.5-0.2,0.7c-0.1,0.3-0.1,0.5-0.2,0.8c-0.1,0.2-0.2,0.5-0.2,0.7
		c-0.2,0.1-0.5,0.1-0.7,0.2s-0.5,0.1-0.8,0.1s-0.5,0-0.8,0s-0.4,0-0.6-0.1c-0.9-0.1-1.7-0.4-2.2-0.7s-1-0.8-1.4-1.2
		c-0.3-0.5-0.5-1-0.6-1.5s-0.1-1.1,0-1.6c0.2-1,0.4-1.9,0.8-2.7c0.4-0.8,0.9-1.4,1.6-2c0.6-0.5,1.4-0.9,2.2-1.1
		C56.6,8,57.6,8,58.6,8.1c0.7,0.1,1.2,0.2,1.7,0.4s0.9,0.4,1.2,0.6c-0.1,0.2-0.1,0.4-0.2,0.6c-0.1,0.2-0.2,0.5-0.4,0.8
		c-0.1,0.3-0.3,0.5-0.4,0.8c-0.1,0.3-0.3,0.5-0.4,0.6l-0.6-0.1V9.4c-0.1-0.1-0.2-0.1-0.4-0.2S58.7,9,58.4,9c-0.6-0.1-1.1,0-1.6,0.2
		s-1,0.6-1.4,1c-0.4,0.5-0.8,1.1-1.1,1.8s-0.5,1.5-0.7,2.4c-0.1,0.6-0.1,1.1,0,1.5s0.3,0.8,0.5,1.1c0.2,0.3,0.5,0.5,0.8,0.7
		s0.6,0.3,0.9,0.3c0.3,0,0.5,0.1,0.8,0c0.2,0,0.4-0.1,0.5-0.1L58.4,15.9z"/>
	<path class="st0" d="M64.9,10.1l4.5,2.1L69,12.7c-0.2,0-0.5,0-0.8-0.1s-0.5-0.1-0.8-0.2l-5.3,7.2l2.6,1.2l2.6-1.9l0.6,0.3
		c-0.1,0.2-0.2,0.5-0.4,0.7c-0.2,0.3-0.3,0.6-0.5,0.9s-0.4,0.6-0.6,0.9s-0.4,0.5-0.6,0.7L58.3,19l0.3-0.5c0.3,0,0.5,0,0.8,0
		c0.2,0,0.4,0.1,0.6,0.1l5.3-7.2c-0.2-0.1-0.3-0.3-0.5-0.4c-0.2-0.1-0.3-0.3-0.3-0.5L64.9,10.1z"/>
	<path class="st0" d="M69.5,25.4l-3.7-2.8l0.4-0.4c0.5,0.1,1,0.2,1.3,0.4l6.7-5.9c-0.1-0.1-0.3-0.3-0.4-0.5s-0.2-0.4-0.3-0.5
		l0.5-0.4l3.7,2.8l-0.5,0.4c-0.2,0-0.5-0.1-0.7-0.2s-0.4-0.2-0.6-0.3l-6.7,5.9c0.1,0.1,0.2,0.3,0.4,0.5c0.1,0.2,0.2,0.4,0.2,0.5
		L69.5,25.4z"/>
	<path class="st0" d="M78,29.8l0.4,0.5c-0.1,0.1-0.3,0.2-0.5,0.4c-0.2,0.1-0.4,0.3-0.6,0.4s-0.4,0.3-0.7,0.4
		c-0.2,0.1-0.4,0.2-0.6,0.3c-0.2-0.1-0.4-0.2-0.7-0.4c-0.2-0.1-0.4-0.3-0.6-0.5s-0.4-0.3-0.6-0.5s-0.3-0.3-0.4-0.5
		c-0.6-0.7-1-1.4-1.2-2s-0.3-1.3-0.2-1.8c0.1-0.6,0.2-1.1,0.5-1.6s0.6-0.9,1-1.2c0.8-0.7,1.6-1.1,2.4-1.5c0.8-0.3,1.7-0.5,2.5-0.4
		c0.8,0,1.6,0.3,2.4,0.7c0.8,0.4,1.5,1,2.1,1.8c0.4,0.5,0.8,1,1,1.5c0.3,0.5,0.4,0.9,0.5,1.2c-0.1,0.1-0.3,0.2-0.6,0.3
		c-0.2,0.1-0.5,0.2-0.8,0.3c-0.3,0.1-0.6,0.2-0.8,0.3c-0.3,0.1-0.5,0.2-0.7,0.2l-0.4-0.5l1.6-1.8c0-0.1-0.1-0.2-0.2-0.4
		c-0.1-0.2-0.2-0.4-0.4-0.5c-0.4-0.4-0.8-0.8-1.4-0.9c-0.5-0.2-1.1-0.2-1.7-0.2c-0.6,0.1-1.3,0.3-2,0.6c-0.7,0.3-1.4,0.8-2.1,1.4
		c-0.4,0.4-0.8,0.7-1,1.1s-0.3,0.7-0.3,1.1s0,0.7,0.1,1s0.3,0.6,0.4,0.8c0.2,0.2,0.4,0.4,0.5,0.5c0.2,0.1,0.3,0.2,0.4,0.2L78,29.8z"
		/>
	<path class="st0" d="M89,35l1.6,3.8L90,38.9c-0.2-0.1-0.3-0.3-0.5-0.5s-0.3-0.4-0.4-0.5L84.2,36c-0.3,0.3-0.5,0.6-0.8,1
		s-0.6,0.8-0.9,1.2s-0.6,0.8-0.9,1.3c-0.3,0.4-0.6,0.9-0.9,1.3l-0.2,0.8H80l-1-2.3l0.2-0.7c0.2-0.3,0.5-0.6,0.7-0.9s0.6-0.6,0.9-1
		s0.6-0.6,0.9-1s0.6-0.6,0.9-0.9l-0.3-0.7l-4,0.8c0,0.2,0,0.4,0,0.6c0,0.2,0,0.3-0.1,0.5l-0.6,0.1L75.9,32l0.6-0.1
		c0.2,0.2,0.4,0.3,0.5,0.5c0.2,0.2,0.3,0.4,0.4,0.5l8.8-1.8c-0.1-0.2-0.1-0.4-0.1-0.7s0-0.4,0.1-0.6l0.6-0.1l1.8,4.2L88,34.1
		c-0.1-0.1-0.3-0.2-0.4-0.4s-0.3-0.3-0.4-0.5l-4,0.8l0.5,0.7l4.7,1.5c0-0.2,0-0.4,0-0.6c0-0.2,0-0.4,0.1-0.5L89,35z"/>
	<path class="st0" d="M81.7,48.3c-0.1,0.5-0.2,0.9-0.4,1.2l-0.6-0.1l-0.1-4.6l0.6,0.1c0.1,0.2,0.2,0.4,0.3,0.6
		c0.1,0.2,0.1,0.4,0.2,0.6l8.8,1.7c0.1-0.4,0.3-0.8,0.4-1l0.6,0.1l0.1,7.8c-0.2,0-0.4-0.1-0.7-0.1c-0.2-0.1-0.5-0.1-0.7-0.2
		c-0.3-0.1-0.5-0.1-0.7-0.2C89.2,54,89,54,88.8,53.9v-0.6l1.8-0.3v-2.9l-4.1-0.8v2.1l1.2,0.9v0.5c-0.3,0-0.5,0-0.8-0.1
		c-0.3,0-0.6-0.1-0.9-0.2c-0.3-0.1-0.6-0.1-0.9-0.2s-0.6-0.1-0.8-0.2v-0.5l1.2-0.4v-2.1L81.7,48.3z"/>
	<path class="st0" d="M84.9,55.1c0.9,0.2,1.7,0.6,2.5,1.1c0.7,0.5,1.3,1.1,1.8,1.8s0.8,1.4,0.9,2.3c0.1,0.8,0.1,1.7-0.2,2.7
		c-0.2,0.6-0.4,1.2-0.8,1.6s-0.7,0.8-1.2,1s-1,0.4-1.5,0.4c-0.6,0-1.2,0-1.8-0.2c-0.8-0.2-1.6-0.6-2.3-1c-0.7-0.5-1.3-1-1.8-1.7
		s-0.8-1.4-1-2.3C79.3,60,79.4,59,79.6,58c0.2-0.7,0.4-1.2,0.8-1.7s0.8-0.8,1.2-1.1c0.5-0.3,1-0.4,1.6-0.4
		C83.7,54.9,84.3,54.9,84.9,55.1z M83.9,57.5c-1-0.3-1.8-0.3-2.4-0.1s-1,0.7-1.1,1.3c-0.1,0.5-0.1,1.1,0.2,1.6
		c0.3,0.5,0.6,1,1.1,1.4s1.1,0.8,1.8,1.1c0.7,0.3,1.4,0.6,2.1,0.8c0.9,0.2,1.6,0.3,2.2,0.1s1-0.6,1.2-1.2c0.1-0.4,0.1-0.7,0-1.1
		c-0.1-0.4-0.3-0.7-0.5-1s-0.5-0.6-0.9-0.9c-0.3-0.3-0.7-0.5-1.1-0.8c-0.4-0.2-0.8-0.4-1.3-0.6S84.3,57.6,83.9,57.5z"/>
	<path class="st0" d="M77.4,66.7c-0.2,0.1-0.3,0.3-0.5,0.4s-0.3,0.2-0.5,0.3L76,66.9l2.5-3.9l0.4,0.4c0,0.3-0.1,0.5-0.1,0.7
		s-0.1,0.4-0.2,0.6L85,71c0.4-0.3,0.7-0.6,1-0.7l0.4,0.4L85.5,72c-0.1,0.2-0.2,0.4-0.4,0.6s-0.3,0.5-0.4,0.7s-0.3,0.5-0.4,0.7
		c-0.1,0.3-0.3,0.5-0.4,0.7c-0.6,0.9-1.2,1.5-1.9,1.7c-0.7,0.2-1.3,0.1-2-0.4c-0.3-0.2-0.6-0.5-0.8-0.8s-0.4-0.6-0.5-1
		s-0.2-0.8-0.2-1.2s0.1-0.9,0.2-1.3c-0.7-0.1-1.4-0.2-2.2-0.3c-0.8,0-1.5-0.1-2.3-0.1l-0.8,0.3L73,71.2l1.3-2L75,69
		c0.7,0,1.4,0.1,2.2,0.3c0.8,0.2,1.5,0.4,2.2,0.7l0.6-1L77.4,66.7z M83.5,73.7c0.1-0.1,0.2-0.3,0.2-0.4s0.1-0.2,0.1-0.3l-3.1-3.1
		l-0.5,0.7c-0.2,0.3-0.4,0.7-0.4,1s0,0.7,0.1,1s0.3,0.6,0.5,0.9s0.5,0.5,0.8,0.7c0.4,0.3,0.8,0.4,1.2,0.3
		C82.9,74.5,83.2,74.2,83.5,73.7z"/>
	<path class="st0" d="M59.6,80.8l3.9-2.2l0.2,0.6c-0.1,0.2-0.3,0.4-0.4,0.5c-0.1,0.2-0.3,0.3-0.5,0.5l2.1,6.3l0.5,1.8l0.1-0.1
		l-0.1-1.9l0.1-8.9l0.6-0.3l4.9,6l1.1,1.5l0.1-0.1l-0.6-1.9l-2-6.2c-0.2,0.1-0.4,0.1-0.6,0.1s-0.5,0-0.7,0L68,76l3.2-1.8l0.2,0.6
		c-0.1,0.2-0.2,0.4-0.4,0.6c-0.2,0.2-0.3,0.4-0.5,0.6l2.8,8.4c0.2-0.1,0.4-0.1,0.6-0.2c0.2,0,0.4,0,0.6,0l0.2,0.6l-3.5,2l-3.9-5
		l-0.8-1.2l0,0l0.1,1.7l-0.1,7.3L63,91.4l-0.2-0.6c0.1-0.2,0.2-0.4,0.4-0.5c0.2-0.2,0.3-0.3,0.5-0.5l-2.8-8.5
		c-0.2,0.1-0.4,0.1-0.6,0.1c-0.2,0-0.4,0-0.5,0L59.6,80.8z"/>
	<path class="st0" d="M52.8,92.7l-3.7,0.5v-0.6c0.2-0.1,0.3-0.2,0.5-0.3c0.2-0.1,0.4-0.2,0.6-0.3l3.2-5.8l0.2-3.6
		c-0.2,0-0.4,0-0.6-0.1c-0.2-0.1-0.4-0.1-0.5-0.2v-0.6l4.6-0.7v0.6c-0.2,0.1-0.4,0.2-0.6,0.4c-0.2,0.1-0.4,0.2-0.7,0.3l-0.2,3.6
		l2.7,5c0.2,0,0.4,0,0.6,0.1s0.4,0.1,0.5,0.2v0.6l-4.8,0.7v-0.6c0.1-0.1,0.3-0.2,0.5-0.3c0.2-0.1,0.4-0.2,0.7-0.3l-1.9-3.9l-2.2,4.5
		c0.2,0,0.4,0.1,0.6,0.1c0.2,0,0.4,0.1,0.5,0.2L52.8,92.7z"/>
	<path class="st0" d="M42.6,82c-0.2-0.1-0.5-0.2-0.7-0.4c-0.2-0.1-0.4-0.3-0.5-0.4l0.3-0.5l4.8,1.4l-0.3,0.5c-0.5,0.1-1,0.1-1.4,0.1
		l-4.2,7.9c0.2,0.1,0.4,0.2,0.5,0.3c0.2,0.1,0.3,0.3,0.4,0.4l-0.3,0.5l-1.8-0.5c-0.4-0.1-0.8-0.2-1.3-0.3c-0.5-0.1-1-0.2-1.4-0.3
		c-0.5-0.1-0.9-0.3-1.3-0.5c-0.4-0.2-0.7-0.5-1-0.7c-0.2-0.3-0.4-0.6-0.5-1s-0.1-0.8,0.1-1.2c0.2-0.6,0.4-1.1,0.8-1.5s0.8-0.8,1.3-1
		s1.1-0.4,1.7-0.4c0.6,0,1.3,0,2.1,0.3c0,0,0.1,0,0.2,0.1c0.1,0,0.2,0.1,0.4,0.1c0.1,0,0.3,0.1,0.4,0.1c0.1,0,0.2,0.1,0.3,0.1
		L42.6,82z M37.5,89.8c0.2,0.1,0.4,0.1,0.5,0.1s0.3,0,0.4,0l2.3-4.2c-0.1,0-0.2-0.1-0.4-0.2s-0.3-0.1-0.4-0.1
		c-0.4-0.1-0.8-0.2-1.2-0.1s-0.7,0.2-1,0.4c-0.3,0.2-0.6,0.5-0.8,0.8s-0.4,0.8-0.5,1.2c-0.1,0.2-0.1,0.4-0.1,0.6s0,0.4,0.1,0.6
		s0.2,0.3,0.4,0.4C37,89.6,37.2,89.7,37.5,89.8z"/>
	<path class="st0" d="M34.6,82.7c-0.5,0.8-1.2,1.4-1.9,2s-1.5,0.9-2.2,1.1s-1.6,0.2-2.5,0c-0.8-0.1-1.7-0.5-2.5-1
		c-0.6-0.4-1-0.8-1.3-1.3C24,83,23.8,82.6,23.7,82c-0.1-0.5,0-1,0.1-1.6c0.2-0.5,0.4-1.1,0.8-1.7c0.5-0.7,1.1-1.3,1.7-1.9
		c0.7-0.5,1.4-0.9,2.2-1.2c0.8-0.2,1.6-0.3,2.5-0.2c0.9,0.1,1.7,0.4,2.6,1c0.6,0.4,1,0.8,1.3,1.3s0.5,1,0.6,1.5s0.1,1.1-0.1,1.6
		S34.9,82.1,34.6,82.7z M32.7,81c0.6-0.9,0.9-1.6,0.8-2.2c0-0.6-0.3-1.1-0.8-1.5c-0.5-0.3-1-0.4-1.5-0.4c-0.6,0.1-1.1,0.3-1.7,0.6
		c-0.6,0.3-1.1,0.8-1.6,1.3s-1,1.1-1.4,1.7c-0.5,0.8-0.8,1.4-0.9,2.1c-0.1,0.6,0.2,1.1,0.8,1.5c0.3,0.2,0.7,0.3,1,0.4
		c0.4,0,0.7,0,1.1-0.1s0.8-0.3,1.2-0.5s0.8-0.5,1.1-0.8c0.4-0.3,0.7-0.6,1-1C32.1,81.7,32.4,81.3,32.7,81z"/>
	<path class="st0" d="M26.1,71.7c-0.1-0.2-0.1-0.4-0.2-0.6c0-0.2-0.1-0.4-0.1-0.5l0.5-0.3l2.8,3.7l-0.5,0.3
		c-0.3-0.1-0.5-0.3-0.7-0.4s-0.4-0.3-0.5-0.4l-8.1,3.9c0.2,0.5,0.3,0.9,0.3,1.2l-0.5,0.3l-1-1.3c-0.1-0.2-0.3-0.3-0.4-0.5
		c-0.2-0.2-0.3-0.4-0.5-0.6s-0.4-0.4-0.6-0.7c-0.2-0.2-0.4-0.4-0.5-0.6c-0.7-0.9-1-1.7-1-2.4s0.4-1.3,1-1.8c0.3-0.2,0.6-0.4,1-0.5
		s0.7-0.2,1.1-0.2s0.8,0.1,1.2,0.2c0.4,0.1,0.8,0.3,1.2,0.6c0.4-0.6,0.7-1.3,1-2s0.6-1.4,0.9-2.1v-0.8L23,66l1.4,1.9l-0.1,0.8
		c-0.2,0.6-0.6,1.3-1,1.9c-0.4,0.7-0.9,1.3-1.4,1.8l0.7,0.9L26.1,71.7z M17.5,75.1c0.1,0.1,0.2,0.2,0.3,0.3c0.1,0.1,0.2,0.2,0.3,0.2
		l4-1.9L21.6,73c-0.2-0.3-0.5-0.6-0.8-0.7s-0.6-0.2-1-0.2c-0.3,0-0.7,0.1-1,0.2s-0.7,0.3-1,0.6c-0.4,0.3-0.6,0.6-0.7,1
		C17,74.2,17.1,74.6,17.5,75.1z"/>
	<path class="st0" d="M20.9,60.4l1.9,4.8l-0.6,0.1c-0.2-0.2-0.3-0.4-0.5-0.6s-0.3-0.4-0.5-0.7l-8.8,1.6l0.7,1.6l3,0.4l0.2,0.6
		c-0.2,0.1-0.4,0.2-0.7,0.3c-0.3,0.1-0.6,0.2-1,0.3c-0.3,0.1-0.7,0.2-1,0.3c-0.3,0.1-0.6,0.1-0.9,0.2l-3.6-8.9
		c0.2,0,0.5-0.1,0.9-0.1c0.3,0,0.7-0.1,1-0.1c0.4,0,0.7-0.1,1-0.1s0.6,0,0.9,0l0.2,0.6L10.9,62l0.7,1.6l8.8-1.6
		c0-0.3-0.1-0.5-0.1-0.8c0-0.2,0-0.5,0-0.7L20.9,60.4z"/>
	<path class="st0" d="M18.6,55.2c0-0.5,0.1-0.9,0.3-1.2h0.6l0.6,4.6h-0.6c-0.1-0.2-0.2-0.3-0.3-0.5c-0.1-0.2-0.2-0.4-0.3-0.6
		L10,56.7c-0.1,0.4-0.2,0.8-0.3,1H9.1l-0.9-7.8c0.2,0,0.4,0,0.7,0.1c0.1,0,0.4,0,0.6,0.1c0.3,0,0.5,0.1,0.8,0.1
		c0.3,0.1,0.5,0.1,0.7,0.2l0.1,0.6l-1.8,0.5l0.3,2.9l4.1,0.3l-0.2-2.1L12.3,52l-0.1-0.5c0.3,0,0.5,0,0.8,0s0.6,0,0.9,0.1
		c0.3,0,0.6,0.1,0.9,0.1c0.3,0,0.6,0.1,0.8,0.1l0.1,0.5l-1.2,0.5l0.2,2.1L18.6,55.2z"/>
	<path class="st0" d="M14.8,48.8c-0.9-0.1-1.8-0.4-2.6-0.8s-1.4-0.9-2-1.6c-0.5-0.6-0.9-1.3-1.1-2.2S8.9,42.5,9,41.6
		c0.1-0.7,0.3-1.2,0.6-1.7s0.6-0.9,1.1-1.2c0.4-0.3,0.9-0.5,1.5-0.6s1.2-0.1,1.8,0c0.8,0.1,1.6,0.4,2.4,0.8c0.8,0.4,1.4,0.9,2,1.5
		s1,1.3,1.2,2.1c0.3,0.8,0.3,1.7,0.2,2.8c-0.1,0.7-0.3,1.3-0.6,1.8c-0.3,0.5-0.7,0.9-1.1,1.2s-0.9,0.5-1.5,0.6
		C16,48.9,15.4,48.9,14.8,48.8z M15.5,46.3c1,0.2,1.8,0.1,2.4-0.2s0.9-0.8,1-1.4c0.1-0.6,0-1.1-0.3-1.5c-0.3-0.5-0.7-0.9-1.3-1.2
		s-1.2-0.7-1.9-0.9s-1.4-0.4-2.1-0.5c-0.9-0.1-1.7-0.1-2.2,0.1c-0.6,0.2-0.9,0.7-1,1.4c-0.1,0.4,0,0.7,0.1,1.1
		c0.1,0.3,0.3,0.7,0.6,1s0.6,0.6,1,0.8s0.8,0.5,1.2,0.7s0.9,0.4,1.3,0.5C14.6,46.2,15.1,46.3,15.5,46.3z"/>
	<path class="st0" d="M11.6,33.6l2.1-4.4l0.5,0.4c0,0.2,0,0.5-0.1,0.8s-0.1,0.5-0.2,0.8l7.2,5.4l1.2-2.6l-1.8-2.6l0.3-0.6
		c0.2,0.1,0.5,0.2,0.7,0.4c0.3,0.2,0.6,0.3,0.9,0.5s0.6,0.4,0.9,0.6s0.5,0.4,0.7,0.6l-3.5,7.4L20,40c0-0.3,0-0.5,0-0.8
		s0.1-0.4,0.1-0.6l-7.2-5.4c-0.1,0.2-0.3,0.3-0.4,0.5C12.3,33.8,12.2,34,12,34L11.6,33.6z"/>
	<path class="st0" d="M26.8,29.1L24,32.8l-0.4-0.4c0.1-0.5,0.2-1,0.4-1.3l-5.9-6.7c-0.1,0.1-0.3,0.3-0.5,0.4s-0.4,0.2-0.5,0.3
		l-0.4-0.5l2.8-3.7l0.4,0.5c0,0.2-0.1,0.5-0.2,0.7s-0.2,0.4-0.3,0.6l5.9,6.7c0.1-0.1,0.3-0.2,0.5-0.4c0.2-0.1,0.4-0.2,0.5-0.2
		L26.8,29.1z"/>
	<path class="st0" d="M24.9,24.6c-0.6-0.7-1-1.5-1.3-2.4c-0.3-0.8-0.4-1.6-0.4-2.5c0-0.8,0.2-1.6,0.6-2.4s1-1.5,1.7-2.1
		c0.5-0.4,1-0.7,1.6-0.9c0.5-0.2,1.1-0.2,1.6-0.1c0.5,0.1,1,0.3,1.5,0.6s0.9,0.7,1.4,1.2c0.5,0.7,1,1.4,1.3,2.2
		c0.3,0.8,0.5,1.6,0.5,2.4s-0.2,1.6-0.5,2.4s-0.9,1.5-1.7,2.2c-0.5,0.4-1.1,0.7-1.6,0.9c-0.6,0.2-1.1,0.2-1.6,0.1s-1-0.3-1.5-0.6
		C25.7,25.5,25.2,25.1,24.9,24.6z M27,23.2c0.6,0.8,1.3,1.3,1.9,1.5s1.2,0,1.7-0.4c0.4-0.4,0.7-0.8,0.8-1.4c0.1-0.6,0-1.1-0.1-1.8
		c-0.2-0.6-0.4-1.3-0.8-1.9c-0.4-0.7-0.8-1.3-1.2-1.8c-0.6-0.7-1.2-1.2-1.7-1.4c-0.6-0.2-1.1-0.1-1.7,0.3c-0.3,0.2-0.5,0.5-0.7,0.9
		C25,17.5,25,17.9,25,18.3s0,0.8,0.2,1.3c0.1,0.4,0.3,0.9,0.5,1.3s0.4,0.8,0.7,1.3C26.5,22.5,26.8,22.9,27,23.2z"/>
</g>
</svg>
