<?xml version="1.0" encoding="utf-8"?>
<!-- Generator: Adobe Illustrator 25.2.3, SVG Export Plug-In . SVG Version: 6.00 Build 0)  -->
<svg version="1.1" id="Layer_1" xmlns="http://www.w3.org/2000/svg" xmlns:xlink="http://www.w3.org/1999/xlink" x="0px" y="0px"
	 viewBox="0 0 625.9 218.6" style="enable-background:new 0 0 625.9 218.6;" xml:space="preserve">
<style type="text/css">
	.st0{fill:#FFD500;}
</style>
<g>
	<path class="st0" d="M146.9,66.9c0,28.3,0,56.6,0,84.9c-0.2,0.1-0.5,0.2-0.7,0.4c-13.9,8-27.8,16-41.7,24.1
		C94.3,182.2,84.1,188,74,193.9c-0.1,0.1-0.2,0.2-0.4,0.3c-0.1,0-0.2,0-0.2,0c-0.1-0.1-0.2-0.2-0.4-0.3c-9.7-5.6-19.3-11.2-29-16.7
		c-13.4-7.8-26.9-15.5-40.3-23.3c-1.2-0.7-2.4-1.4-3.7-2.1c0-28.3,0-56.6,0-84.9c0.2-0.1,0.3-0.1,0.5-0.2
		c8.6-4.9,17.1-9.9,25.7-14.8c15.6-9,31.2-18,46.8-27c0.1-0.1,0.2-0.2,0.3-0.3c0.1,0,0.1,0,0.2,0c0.2,0.1,0.3,0.2,0.5,0.3
		c10,5.7,19.9,11.5,29.9,17.2c14.2,8.2,28.4,16.4,42.6,24.6C146.6,66.8,146.7,66.8,146.9,66.9z"/>
	<g>
		<path d="M88.9,115.5c-0.6,0.3-1.2,0.6-1.8,0.8c-2.3,1.1-4.6,2.1-6.8,3.2c-0.3,0.1-0.5,0.1-0.6-0.2c-0.6-1-1.2-2.1-1.8-3.1
			c-0.1-0.1-0.1-0.2-0.2-0.4c-0.6,0.9-1.2,1.7-1.9,2.5c-2.1,2.7-4.3,5.2-7.2,7.1c-1.4,0.9-2.8,1.7-4.5,1.9c-2.2,0.3-4.2-0.4-5.1-2.6
			c-0.6-1.3-0.9-2.7-1.1-4.2c-0.1-1-0.1-2.1-0.2-3.1c-0.1-2.4,0.4-4.8,1.1-7.2c1.6-5.3,4.1-10.2,7-14.9c0.5-0.7,0.6-1.3,0.2-2.1
			c-0.8-1.6-1.2-3.4-1.2-5.2c-0.2-3.8,0.9-7.3,2.7-10.5c1.7-3,3.7-5.6,6.3-7.9c1.6-1.4,3.3-2.6,5.3-3.2c0.9-0.3,1.9-0.4,2.8-0.3
			c1.7,0.3,2.6,1.4,3,3c0.5,2.3,0.3,4.5-0.3,6.8c-0.9,3.4-2.4,6.5-4.2,9.5c-1.2,2-2.6,4-4,5.9c-0.2,0.3-0.3,0.6-0.1,1
			c0.8,1.5,1.6,3.1,2.4,4.6c0.3,0.6,0.7,1.2,1.1,1.9c0.2-0.3,0.3-0.5,0.4-0.7c1.1-2.1,1.8-4.4,2.5-6.7c0.4-1.3,0.7-2.6,1.1-3.9
			c0.1-0.2,0.2-0.5,0.4-0.6c2.7-1.4,5.3-2.8,8-4.2c0.1,0,0.2-0.1,0.4-0.2c-0.2,0.8-0.3,1.5-0.5,2.3C91,89,89.4,93,87.7,96.9
			c-1.3,2.8-2.6,5.6-3.9,8.4c-0.1,0.3-0.1,0.5,0,0.7c1.7,3,3.3,6,5,9.1C88.9,115.4,88.9,115.4,88.9,115.5z M69.5,100.8
			c-0.1,0.1-0.1,0.2-0.2,0.2c-1.5,2.2-2.7,4.5-3.7,7c-0.7,1.8-1.3,3.7-1,5.6c0.2,1.6,0.6,2.1,1.9,2.4c0.5,0.1,1,0.1,1.5,0
			c1.1-0.2,2-1,2.8-1.8c1.2-1.3,2.2-2.9,3-4.5c0.2-0.3,0.1-0.5,0-0.8c-1.3-2.4-2.5-4.8-3.8-7.2C69.9,101.4,69.7,101.1,69.5,100.8z
			 M73.2,86.8c0.6-0.9,1.1-1.6,1.7-2.5c1.4-2.2,2.8-4.3,3.5-6.9c0.2-0.7,0.4-1.5,0.2-2.3c-0.2-0.7-0.7-1-1.4-0.9
			c-0.8,0.2-1.5,0.6-2.1,1.2c-2.5,2.4-3.4,5.4-2.9,8.8C72.4,85.2,72.7,86,73.2,86.8z"/>
		<path d="M58.7,60c0.5,1.7,1.1,3.3,1.6,5c1,3.5,1.8,7,2.4,10.6c0.4,2.7,0.7,5.5,0.7,8.2c0,2,0,4.1-0.1,6.1c-0.2,4-1.2,7.9-2.5,11.6
			c-2.6,7.2-6.1,14-10.8,20.1c-2.1,2.7-4.3,5.3-6.9,7.5c-1.4,1.1-2.9,1.9-4.8,1.8c-1.8-0.1-3.2-0.8-4.1-2.4c-1.1-1.8-1.6-3.9-2-5.9
			c-0.9-4.5-1.7-8.9-2.5-13.4c0-0.2,0-0.5,0.1-0.7c3.4-5.7,6.8-11.4,10.2-17.2c5.4-9.1,10.8-18.1,16.2-27.2c0.7-1.2,1.5-2.4,2.2-3.7
			c0.1-0.1,0.2-0.2,0.2-0.3C58.6,60.1,58.6,60.1,58.7,60z M55.4,78.3L55.4,78.3c-0.2,0.1-0.2,0.2-0.3,0.2
			c-6.3,10.3-12.6,20.6-18.9,31c-0.1,0.2-0.2,0.5-0.1,0.8c0.3,1.9,0.6,3.8,0.9,5.7c0.2,1,0.5,2,1.1,2.9c0.5,0.6,1,1.1,1.9,1.1
			c0.8,0,1.5-0.3,2.1-0.7c0.9-0.8,1.9-1.6,2.6-2.6c4.3-5.4,7.6-11.4,9.8-18c1.3-3.9,2.1-7.8,2.1-11.9c0-1.6-0.1-3.3-0.3-4.9
			C56,80.7,55.6,79.5,55.4,78.3z"/>
		<path d="M56.4,152.5c3.5-2.6,7.1-5.1,10.6-7.7c-0.4-0.3-0.8-0.6-1.1-0.9c-2.7-2.1-5.4-4.3-8.1-6.4c-0.2-0.2-0.4-0.2-0.7-0.2
			c-4.7,1-9.3,2-14,3c-1.1,0.2-2.2,0.5-3.3,0.7c-0.1,0-0.4,0-0.5-0.1c-2.5-1.7-4.9-3.4-7.4-5.1c-0.1-0.1-0.2-0.1-0.3-0.1l0.1-0.1
			c1-0.2,2-0.4,3-0.6c4.4-0.9,8.9-1.8,13.3-2.8c5.1-1.1,10.2-2.1,15.3-3.2c5.1-1.1,10.1-2.1,15.2-3.2c4.7-1,9.4-2,14.1-2.9
			c1.4-0.3,2.8-0.6,4.1-0.9c0.1,0,0.3,0,0.4,0.1c1.9,1.9,3.7,3.8,5.6,5.7c-0.4,0.3-0.7,0.6-1.1,0.8c-9.6,7.4-19.3,14.8-28.9,22.1
			c-2.8,2.1-5.6,4.3-8.4,6.4c-0.3,0.2-0.5,0.2-0.8,0c-2.2-1.5-4.5-2.9-6.7-4.4C56.7,152.8,56.6,152.7,56.4,152.5z M67.3,135.1
			c2.1,1.7,4.2,3.3,6.2,5c4.1-3,8.2-6,12.4-9c0,0,0,0,0-0.1C79.7,132.4,73.5,133.7,67.3,135.1z"/>
		<path d="M98.3,86.7c-0.5-1-1-1.9-1.5-2.8c-1.6-2.9-3.1-5.8-4.7-8.7c-0.2-0.3-0.2-0.5,0.1-0.8c1.2-1.6,2.4-3.3,3.6-4.9
			c0.1-0.1,0.1-0.2,0.2-0.3c0.1,0.3,0.3,0.5,0.4,0.7c7.7,14.1,15.3,28.3,23,42.4c0.2,0.3,0.1,0.5,0,0.8c-0.9,1.8-1.8,3.5-2.8,5.3
			c-0.1,0.2-0.2,0.3-0.3,0.6c-0.4-0.5-0.9-0.9-1.3-1.4c-0.1,0.8-0.1,1.6-0.2,2.3c-0.4,2.5-1.3,4.7-3.3,6.3c-1.8,1.5-3.9,1.5-6,0.8
			c-1.9-0.7-3.5-1.8-5-3.2c-2.6-2.5-4.6-5.5-6.2-8.7c-1.6-3.1-3-6.3-3.8-9.7c-0.6-2.3-0.9-4.6-0.8-7c0.1-2.6,0.5-5.1,1.8-7.4
			c1.4-2.6,3.6-4,6.6-4.2C98.1,86.8,98.2,86.8,98.3,86.7z M110,112.8c-0.1-1.2-0.2-2.4-0.5-3.6c-0.8-4.3-2.6-8.2-5-11.8
			c-0.7-1.1-1.7-2-2.8-2.7c-1.1-0.6-2.3-0.7-3.4,0c-1,0.6-1.4,1.5-1.7,2.5c-0.6,2.1-0.4,4.3,0.1,6.4c1.1,4.4,3.3,8.3,5.9,12
			c0.7,1,1.6,1.9,2.6,2.5c1.6,1,3.2,0.5,3.9-1.2c0.1-0.2,0.1-0.3,0.2-0.5C109.9,115.2,109.9,114.1,110,112.8z"/>
	</g>
</g>
<g>
	<path d="M175.2,49.9h19.9c4.4,0,8,0.4,11,1.2c2.9,0.8,5.2,2.6,7,5.2c1.8,2.8,2.6,5.8,2.6,9.1c0,5.4-1.7,9.5-5.1,12.2
		c-3.4,2.8-8.4,4.1-14.9,4.1h-13.5v21.3h-7L175.2,49.9L175.2,49.9z M182.4,75.6h13.5c4.5,0,7.8-0.8,9.8-2.6c1.9-1.7,2.9-4.1,2.9-7.3
		c0-2.2-0.6-4-1.7-5.6s-2.5-2.8-4.1-3.2c-1.7-0.4-4-0.7-7.2-0.7h-13.2V75.6z"/>
	<path d="M237.5,63.7c5.5,0,9.9,1.8,13.2,5.2c3.3,3.6,5,8.5,5,15c0,6.5-1.7,11.4-5,14.9c-3.3,3.6-7.7,5.4-13.2,5.4
		s-9.9-1.8-13.2-5.4c-3.3-3.6-5-8.5-5-14.9c0-6.5,1.7-11.4,5-15C227.6,65.5,232,63.7,237.5,63.7z M237.5,98.8c3.3,0,5.9-1.2,8-3.7
		s3-6.2,3-11.1s-1-8.7-3-11.1c-2.1-2.5-4.7-3.7-8-3.7s-5.9,1.2-8,3.7c-2.1,2.5-3,6.2-3,11.1s1,8.7,3,11.1S234.2,98.8,237.5,98.8z"/>
	<path d="M282.4,70.9c-1-0.3-2.3-0.4-4.1-0.4c-3.4,0-6.5,1.8-8.9,5.5v27.4h-6.9V64.7h6.9v5.4c2.9-4.1,6.2-6.3,10-6.3
		c1,0,2.1,0.1,3.2,0.3L282.4,70.9L282.4,70.9z"/>
	<path d="M303.5,103.4c-1.5,0.3-3.2,0.4-5,0.4c-2.8,0-4.8-0.6-6.2-1.5c-1.4-1-2.1-2.3-2.5-3.9c-0.3-1.7-0.4-3.7-0.4-6.5V70.1h-4.8
		v-5.4h4.8v-9.6h6.9v9.6h6.3v5.4h-6.3v22.3c0,2.6,0.3,4.3,1,5.1c0.7,0.7,1.7,1.1,2.8,1.1c1.2,0,2.3-0.1,3.4-0.3L303.5,103.4
		L303.5,103.4z"/>
	<path d="M318.3,70.1v33.3h-6.9V70.1h-5.6v-5.4h5.6v-3.4c0-8.1,3.6-12.2,10.9-12.2c2.2,0,4,0.1,5.1,0.4v5.9
		c-1.4-0.3-2.8-0.4-4.1-0.4c-1.7,0-2.9,0.4-3.7,1.4c-0.8,1-1.2,2.6-1.2,4.8v3.3h7.3v5.4L318.3,70.1L318.3,70.1z"/>
	<path d="M345.3,63.7c5.5,0,9.9,1.8,13.2,5.2c3.3,3.6,5,8.5,5,15c0,6.5-1.7,11.4-5,14.9c-3.3,3.6-7.7,5.4-13.2,5.4
		c-5.5,0-9.9-1.8-13.2-5.4c-3.3-3.6-5-8.5-5-14.9c0-6.5,1.7-11.4,5-15C335.4,65.5,339.8,63.7,345.3,63.7z M345.3,98.8
		c3.3,0,5.9-1.2,8-3.7s3-6.2,3-11.1s-1-8.7-3-11.1c-2.1-2.5-4.7-3.7-8-3.7c-3.3,0-5.9,1.2-8,3.7c-2.1,2.5-3,6.2-3,11.1s1,8.7,3,11.1
		C339.3,97.6,342,98.8,345.3,98.8z"/>
	<path d="M376.8,103.4H370V50h6.9V103.4z"/>
	<path d="M392.2,57.3h-6.9v-7.4h6.9V57.3z M392.2,103.4h-6.9V64.7h6.9V103.4z"/>
	<path d="M417,63.7c5.5,0,9.9,1.8,13.2,5.2c3.3,3.6,5,8.5,5,15c0,6.5-1.7,11.4-5,14.9c-3.3,3.6-7.7,5.4-13.2,5.4
		c-5.5,0-9.9-1.8-13.2-5.4c-3.3-3.6-5-8.5-5-14.9c0-6.5,1.7-11.4,5-15C407.1,65.5,411.5,63.7,417,63.7z M417,98.8
		c3.3,0,5.9-1.2,8-3.7c2.1-2.5,3-6.2,3-11.1s-1-8.7-3-11.1c-2.1-2.5-4.7-3.7-8-3.7c-3.3,0-5.9,1.2-8,3.7c-2.1,2.5-3,6.2-3,11.1
		s1,8.7,3,11.1C410.9,97.6,413.7,98.8,417,98.8z"/>
	<path d="M175.3,115.2h19.9c4.4,0,8,0.4,11,1.2c2.9,0.8,5.2,2.6,7,5.2c1.8,2.8,2.6,5.8,2.6,9.1c0,5.4-1.7,9.5-5.1,12.2
		c-3.4,2.8-8.4,4.1-14.9,4.1h-13.5v21.3h-7L175.3,115.2L175.3,115.2z M182.5,141h13.5c4.5,0,7.8-0.8,9.8-2.6
		c1.9-1.7,2.9-4.1,2.9-7.3c0-2.2-0.6-4-1.7-5.6c-1.1-1.7-2.5-2.8-4.1-3.2s-4-0.7-7.2-0.7h-13.3V141H182.5z"/>
	<path d="M229.1,122.7h-6.9v-7.4h6.9V122.7z M229.1,168.7h-6.9v-38.6h6.9V168.7z"/>
	<path d="M253.7,169.6c-5.5,0-9.9-1.8-13.2-5.4c-3.3-3.6-5-8.5-5-14.9c0-6.5,1.7-11.4,5-15c3.3-3.6,7.7-5.2,13.2-5.2
		c4.3,0,7.7,1.1,10.6,3.2c2.9,2.2,4.5,5.2,5,9.2h-7c-0.1-2.3-1-4.1-2.6-5.2c-1.7-1.2-3.6-1.8-5.9-1.8c-3.3,0-5.9,1.2-8,3.7
		c-2.1,2.5-3,6.2-3,11.1c0,5,1,8.7,3,11.1c2.1,2.5,4.7,3.7,8,3.7c2.3,0,4.3-0.6,5.9-1.8c1.7-1.2,2.5-3,2.6-5.2h7
		c-0.6,4-2.2,7.2-5,9.2C261.5,168.5,258,169.6,253.7,169.6z"/>
	<path d="M306.8,168.7h-8.3L286,149.1l-4.3,4.3v15.4h-6.9v-53.4h6.9v30.3l14.9-15.5h8.7l-14.6,14.4L306.8,168.7z"/>
	<path d="M324.2,169.6c-10.6,0-16.1-4.1-16.6-12.5h6.9c0,4.7,3.3,7,9.6,7c2.9,0,5-0.6,6.5-1.8c1.5-1.2,2.2-2.6,2.2-4.4
		s-0.7-3-2.2-3.7c-1.5-0.7-4.4-1.7-9.1-2.8c-4.5-1.1-7.8-2.5-10-3.9c-2.1-1.4-3.2-3.9-3.2-7.4c0-3.2,1.4-5.9,4-8
		c2.6-2.1,6.1-3.2,10.5-3.2c10.2,0,15.3,3.6,15.5,10.9h-6.9c-0.3-3.7-3-5.5-8.3-5.5c-2.3,0-4.3,0.4-5.8,1.4s-2.3,2.2-2.3,3.9
		c0,1.5,0.6,2.6,1.8,3.3c1.2,0.7,4.1,1.5,8.8,2.8c4.7,1.1,8.1,2.5,10.5,4c2.3,1.5,3.4,4.1,3.4,7.8c0,3.6-1.4,6.5-4.3,8.8
		C332.8,168.5,329,169.6,324.2,169.6z"/>
</g>
<g>
	<path d="M419.3,169.6h-60.6c4.3-17.5,15.8-23.8,30.1-27.4l13.4-3.6c3.3-0.8,6.1-2.7,6.6-5.3c0.7-3.3-2.1-5.7-8.9-5.8
		c-6.5,0-11.9,2.5-13.8,8.6h-18.7c4.3-15.5,17.9-20.3,35-20.3c17.6,0,27.4,5.9,25,17.7c-4.1,20-37.6,14.7-47,24.4h41.3L419.3,169.6z
		"/>
	<path d="M493.9,143.5c-3,14.1-13.5,27.3-36.6,27.3c-23,0-28.2-13.2-25.2-27.3c3-14.6,13.5-27.7,36.6-27.7
		C491.7,115.7,496.9,129.1,493.9,143.5z M449.6,143.5c-2.6,12.5,4.1,15.6,10.1,15.6c6.1,0,13.8-2.6,16.6-15.6c2.7-13-4-16-10-16
		C460.3,127.5,452.3,130.5,449.6,143.5z"/>
	<path d="M554.3,169.6h-60.6c4.3-17.5,15.8-23.8,30.1-27.4l13.4-3.6c3.3-0.8,6.1-2.7,6.6-5.3c0.7-3.3-2.1-5.7-8.9-5.8
		c-6.5,0-11.9,2.5-13.8,8.6h-18.7c4.3-15.5,17.9-20.3,35-20.3c17.6,0,27.4,5.9,25,17.7c-4.1,20-37.6,14.7-47,24.4h41.3L554.3,169.6z
		"/>
	<path d="M585.4,137.9h-16.1l2.4-11.3h2.6c7.6,0,14-1.1,18.9-9.7h13.2l-10.9,52.6h-16.6L585.4,137.9z"/>
</g>
</svg>
